<?xml version="1.0" encoding="utf-8"?>
<!-- Generator: Adobe Illustrator 22.1.0, SVG Export Plug-In . SVG Version: 6.00 Build 0)  -->
<svg version="1.1" id="Calque_1" xmlns="http://www.w3.org/2000/svg" xmlns:xlink="http://www.w3.org/1999/xlink" x="0px" y="0px"
	 viewBox="0 0 42.5 42.5" style="enable-background:new 0 0 42.5 42.5;" xml:space="preserve">
<style type="text/css">
	.st0{fill:#1DA0F2;}
	.st1{fill:#FDFEFE;}
</style>
<path class="st0" d="M20.9,1.5L20.9,1.5c11,0,20,9,20,20l0,0c0,11-9,20-20,20l0,0c-11,0-20-9-20-20l0,0C0.9,10.4,9.9,1.5,20.9,1.5z"
	/>
<path class="st1" d="M10.5,23.8c0.8,0.1,1.6,0.1,2.4-0.1c-2.7-0.9-4.1-2.7-4.3-5.6c0.8,0.4,1.5,0.6,2.4,0.7c0-0.2-0.2-0.2-0.2-0.3
	C8.7,17,8,14,9.2,11.8c0.2-0.3,0.3-0.3,0.5,0c2.8,3.3,6.3,5.1,10.6,5.5c0.5,0,0.4-0.2,0.3-0.5c-0.3-2.5,0.9-4.8,3.2-5.9
	c2-0.9,4.4-0.5,6,1c0.2,0.2,0.4,0.3,0.7,0.2c1.1-0.3,2.1-0.7,3-1.2c-0.4,1.3-1.2,2.2-2.2,3c1,0,1.9-0.4,2.9-0.7
	c-0.6,1-1.4,1.8-2.3,2.6c-0.3,0.2-0.4,0.4-0.4,0.8c0.2,6.4-3.7,12.5-9.5,14.9c-4.8,2-9.6,1.6-14.2-1c-0.1,0-0.1-0.1-0.2-0.1
	c0,0,0,0,0-0.1c2.9,0.2,5.5-0.5,7.9-2.3C13,27.5,11.4,26.2,10.5,23.8z"/>
</svg>
