<?xml version="1.0" encoding="utf-8"?>
<!-- Generator: Adobe Illustrator 22.1.0, SVG Export Plug-In . SVG Version: 6.00 Build 0)  -->
<svg version="1.1" id="Calque_1" xmlns="http://www.w3.org/2000/svg" xmlns:xlink="http://www.w3.org/1999/xlink" x="0px" y="0px"
	 viewBox="0 0 42.5 42.5" style="enable-background:new 0 0 42.5 42.5;" xml:space="preserve">
<style type="text/css">
	.st0{fill:#6441A5;}
	.st1{fill:#FFFFFF;}
</style>
<path class="st0" d="M20.9,1.5L20.9,1.5c11,0,20,9,20,20l0,0c0,11-9,20-20,20l0,0c-11,0-20-9-20-20l0,0C0.9,10.4,9.9,1.5,20.9,1.5z"
	/>
<path class="st1" d="M21.1,9.8c3.5,0,6.9,0,10.4,0c0.2,0,0.3,0.1,0.3,0.3c0,4.6,0,9.1,0,13.7c0,0.2-0.1,0.3-0.2,0.4
	c-2,2-4.1,4.1-6.1,6.1c-0.1,0.1-0.3,0.2-0.4,0.2c-1.3,0-2.5,0-3.8,0c-0.1,0-0.3,0.1-0.4,0.2c-0.8,0.8-1.7,1.7-2.5,2.5
	c-0.1,0.1-0.3,0.2-0.4,0.2c-1,0-2.1,0-3.1,0c-0.2,0-0.2-0.1-0.2-0.2c0-0.8,0-1.6,0-2.4c0-0.2-0.1-0.3-0.3-0.3c-1.7,0-3.5,0-5.2,0
	c-0.2,0-0.3-0.1-0.3-0.3c0-5.3,0-10.6,0-15.9c0-0.1,0-0.3,0.1-0.4c0.4-1.3,0.9-2.6,1.3-3.9c0.1-0.2,0.1-0.2,0.3-0.2
	C14.1,9.8,17.6,9.8,21.1,9.8z M17.5,29.7c0.1-0.1,0.1-0.1,0.2-0.2c0.8-0.8,1.6-1.6,2.4-2.4c0.1-0.1,0.3-0.2,0.5-0.2
	c1.7,0,3.5,0,5.2,0c0.1,0,0.3-0.1,0.4-0.2c1.1-1.1,2.2-2.2,3.2-3.2c0.1-0.1,0.2-0.3,0.2-0.4c0-3.6,0-7.3,0-10.9c0-0.2,0-0.3-0.3-0.3
	c-5.5,0-11.1,0-16.6,0c-0.2,0-0.3,0.1-0.3,0.3c0,4.8,0,9.6,0,14.4c0,0.2,0.1,0.3,0.3,0.3c1.5,0,2.9,0,4.4,0c0.3,0,0.3,0.1,0.3,0.3
	c0,0.7,0,1.5,0,2.2C17.5,29.5,17.5,29.6,17.5,29.7z"/>
<path class="st1" d="M24.6,19.5c0-1.1,0-2.3,0-3.4c0-0.2,0.1-0.3,0.3-0.3c0.7,0,1.3,0,2,0c0.2,0,0.3,0.1,0.3,0.3c0,2.3,0,4.6,0,6.9
	c0,0.2,0,0.3-0.3,0.3c-0.7,0-1.3,0-2,0c-0.2,0-0.3-0.1-0.3-0.3C24.6,21.9,24.6,20.7,24.6,19.5z"/>
<path class="st1" d="M20.5,19.6c0,1.1,0,2.3,0,3.4c0,0.2-0.1,0.3-0.3,0.3c-0.7,0-1.3,0-2,0c-0.2,0-0.2,0-0.2-0.2c0-2.3,0-4.6,0-7
	c0-0.2,0.1-0.2,0.2-0.2c0.7,0,1.3,0,2,0c0.2,0,0.3,0,0.3,0.3C20.5,17.3,20.5,18.4,20.5,19.6z"/>
</svg>
